<svg width="453" height="395" viewBox="0 0 453 395" fill="none" xmlns="http://www.w3.org/2000/svg">
<path d="M281.652 0C270.313 0 261.121 9.19201 261.121 20.531V94.563C260.647 98.146 257.613 100.921 253.9 100.921C249.859 100.921 246.583 97.645 246.583 93.604V85.973H246.56V58.547C246.56 47.208 237.369 38.017 226.03 38.017C214.691 38.017 205.499 47.208 205.499 58.547V84.66H205.469V92.512C205.469 96.671 202.098 100.042 197.939 100.042C193.78 100.042 190.409 96.671 190.409 92.512V84.66H190.294V20.531C190.294 9.19201 181.102 0 169.763 0C158.424 0 149.232 9.19201 149.232 20.531V66.347V73.274C149.232 76.942 146.258 79.916 142.59 79.916C138.921 79.916 135.947 76.942 135.947 73.274V66.347V51.27C135.947 39.931 126.756 30.739 115.417 30.739C104.078 30.739 94.8856 39.931 94.8856 51.27V138.011C94.8856 149.35 104.078 158.542 115.417 158.542C126.756 158.542 135.947 149.35 135.947 138.011V110.039V100.321C135.947 96.652 138.921 93.678 142.59 93.678C146.258 93.678 149.232 96.652 149.232 100.321V110.039V184.719C149.232 196.057 158.424 205.249 169.763 205.249C181.102 205.249 190.294 196.057 190.294 184.719V134.191H190.409V123.174C190.409 119.016 193.78 115.644 197.939 115.644C202.098 115.644 205.469 119.016 205.469 123.174V134.191H205.499V222.735C205.499 234.074 214.691 243.266 226.03 243.266C237.369 243.266 246.56 234.074 246.56 222.735V134.104H246.583V123.398C246.583 119.357 249.859 116.082 253.9 116.082C257.613 116.082 260.647 118.856 261.121 122.44V184.719C261.121 196.057 270.313 205.249 281.652 205.249C292.99 205.249 302.182 196.057 302.182 184.719V20.531C302.182 9.19201 292.99 0 281.652 0Z" fill="white"/>
<path d="M337.141 86.2002C325.802 86.2002 316.611 95.3922 316.611 106.731V140.253C316.611 151.592 325.802 160.783 337.141 160.783C348.48 160.783 357.671 151.592 357.671 140.253V106.731C357.671 95.3922 348.48 86.2002 337.141 86.2002Z" fill="white"/>
<path d="M337.141 74.605C347.868 74.605 356.563 65.91 356.563 55.183C356.563 44.457 347.868 35.761 337.141 35.761C326.414 35.761 317.719 44.457 317.719 55.183C317.719 65.91 326.414 74.605 337.141 74.605Z" fill="white"/>
<path d="M74.303 319.213C70.12 336.234 55.336 347.515 37.929 347.515C15.365 347.515 0 329.523 0 310.071C0 291.69 14.199 272.822 37.735 272.822C60.297 272.822 72.357 290.232 74.303 301.514H55.045C53.003 296.164 47.556 288.968 37.637 288.968C25.286 288.968 18.381 299.763 18.381 309.974C18.381 320.867 25.772 331.37 37.735 331.37C49.209 331.37 53.878 321.742 55.045 319.213H74.303Z" fill="white"/>
<path d="M128.647 310.362H135.163C145.959 310.362 147.223 303.554 147.223 300.053C147.223 293.538 142.457 290.328 135.357 290.328H128.647V310.362ZM111.043 274.184H133.802C146.445 274.184 151.309 275.74 155.975 279.339C161.908 284.007 164.827 291.592 164.827 298.984C164.827 307.252 160.547 319.407 146.931 321.644L166.48 346.153H145.473L128.842 322.91H128.647V346.153H111.043V274.184Z" fill="white"/>
<path d="M201.768 274.185H241.739V290.329H219.372V301.514H241.058V317.658H219.372V330.009H241.739V346.154H201.768V274.185Z" fill="white"/>
<path d="M297.744 330.009H305.621C319.334 330.009 323.224 320.479 323.224 310.266C323.224 306.181 322.349 301.028 319.723 296.942C317.584 293.733 313.888 290.328 305.719 290.328H297.744V330.009ZM279.362 274.185H303.19C311.263 274.185 325.655 274.185 334.993 287.606C339.953 294.413 341.606 302.097 341.606 309.974C341.606 329.62 331.88 346.154 304.552 346.154H279.362V274.185Z" fill="white"/>
<path d="M414.822 331.37C427.854 331.37 434.176 319.505 434.176 310.266C434.176 300.929 427.854 288.968 414.628 288.968C401.887 288.968 394.98 299.859 394.98 309.974C394.98 321.061 402.47 331.37 414.822 331.37ZM414.53 272.822C436.703 272.822 452.556 290.134 452.556 310.168C452.556 330.203 436.801 347.515 414.433 347.515C391.771 347.515 376.6 329.522 376.6 311.044C376.6 306.278 377.281 300.929 379.42 295.678C383.214 286.342 394.396 272.822 414.53 272.822Z" fill="white"/>
<path d="M133.904 383.084C132.251 389.811 126.409 394.27 119.529 394.27C110.612 394.27 104.539 387.158 104.539 379.472C104.539 372.207 110.151 364.751 119.452 364.751C128.369 364.751 133.135 371.631 133.904 376.089H126.294C125.487 373.976 123.334 371.131 119.414 371.131C114.532 371.131 111.803 375.397 111.803 379.433C111.803 383.738 114.725 387.889 119.452 387.889C123.987 387.889 125.833 384.084 126.294 383.084H133.904Z" fill="white"/>
<path d="M151.557 379.587H154.132C158.399 379.587 158.898 376.897 158.898 375.513C158.898 372.938 157.015 371.669 154.209 371.669H151.557V379.587ZM144.6 365.289H153.594C158.591 365.289 160.513 365.903 162.358 367.326C164.702 369.171 165.855 372.169 165.855 375.09C165.855 378.357 164.164 383.161 158.783 384.045L166.509 393.732H158.206L151.634 384.545H151.557V393.732H144.6V365.289Z" fill="white"/>
<path d="M190.617 359.331L181.162 363.52L179.355 359.754L188.58 354.796L190.617 359.331ZM176.626 365.289H192.424V371.669H183.583V376.089H192.155V382.47H183.583V387.351H192.424V393.731H176.626V365.289Z" fill="white"/>
<path d="M212.919 383.854H218.877L215.956 374.129H215.917H215.84L212.919 383.854ZM210.92 389.619L209.421 393.732H201.619L213.034 365.29H218.761L230.061 393.732H222.182L220.798 389.619H210.92Z" fill="white"/>
<path d="M242.372 371.669H236.76V365.289H255.209V371.669H249.636V393.731H242.372V371.669Z" fill="white"/>
<path d="M265.056 365.29H272.321V393.732H265.056V365.29Z" fill="white"/>
<path d="M298.269 387.889C303.419 387.889 305.917 383.201 305.917 379.548C305.917 375.859 303.419 371.131 298.192 371.131C293.157 371.131 290.428 375.436 290.428 379.433C290.428 383.815 293.388 387.889 298.269 387.889ZM298.154 364.751C306.917 364.751 313.182 371.592 313.182 379.51C313.182 387.428 306.956 394.27 298.116 394.27C289.16 394.27 283.164 387.159 283.164 379.856C283.164 377.973 283.433 375.859 284.279 373.784C285.778 370.093 290.198 364.751 298.154 364.751Z" fill="white"/>
<path d="M324.034 365.289H330.3L341.292 383.161L341.369 383.084L341.061 365.289H348.018V393.731H341.715L330.876 376.435L330.799 376.474L330.991 393.731H324.034V365.289Z" fill="white"/>
</svg>
